<?xml version="1.0" encoding="utf-8" ?>
<svg baseProfile="tiny" height="100%" version="1.2" width="100%" xmlns="http://www.w3.org/2000/svg" xmlns:ev="http://www.w3.org/2001/xml-events" xmlns:xlink="http://www.w3.org/1999/xlink"><defs /><path d="M 1212,789 L 1212,790 L 1211,791 L 1211,792 L 1208,795 L 1207,795 L 1206,796 L 1205,796 L 1205,797 L 1207,797 L 1208,798 L 1208,799 L 1210,801 L 1210,802 L 1212,804 L 1212,806 L 1213,806 L 1213,804 L 1215,802 L 1215,801 L 1217,799 L 1218,799 L 1220,797 L 1222,797 L 1222,796 L 1220,796 L 1218,794 L 1216,794 L 1215,793 L 1215,792 L 1213,790 L 1213,789 Z" fill="black" /><path d="M 451,723 L 451,724 L 452,724 L 452,723 Z" fill="black" /><path d="M 414,718 L 414,719 L 415,718 Z" fill="black" /><path d="M 288,717 L 289,718 L 289,719 L 289,718 L 290,717 Z" fill="black" /><path d="M 555,716 L 555,718 L 555,717 L 556,716 L 559,716 Z" fill="black" /><path d="M 528,716 L 528,717 L 530,717 L 529,716 Z" fill="black" /><path d="M 520,716 L 519,717 L 519,725 L 521,725 L 521,721 L 522,720 L 521,720 L 520,719 L 521,718 L 521,717 L 522,716 L 523,716 L 524,717 L 525,716 L 526,716 L 522,716 L 521,717 Z" fill="black" /><path d="M 464,716 L 463,717 L 456,717 L 463,717 L 464,718 Z" fill="black" /><path d="M 452,716 L 451,717 L 450,717 L 453,717 L 453,716 Z" fill="black" /><path d="M 380,716 L 379,717 L 379,728 L 380,728 L 380,725 L 381,724 L 382,725 L 385,722 L 385,721 L 387,719 L 391,719 L 392,718 L 390,718 L 389,717 L 390,716 L 393,716 L 394,717 L 394,718 L 395,718 L 394,717 L 394,716 Z" fill="black" /><path d="M 201,716 L 203,716 L 204,717 L 204,718 L 205,719 L 205,717 L 204,716 Z" fill="black" /><path d="M 191,716 L 192,717 L 195,717 L 192,717 Z" fill="black" /><path d="M 304,712 L 303,713 L 297,713 L 303,713 L 304,714 L 305,713 Z" fill="black" /><path d="M 502,711 L 502,712 L 503,712 Z" fill="black" /><path d="M 337,711 L 338,712 L 338,713 L 339,713 L 339,712 L 338,712 Z" fill="black" /><path d="M 438,710 L 438,711 L 439,711 L 439,710 Z" fill="black" /><path d="M 622,707 L 622,711 L 621,712 L 622,711 Z" fill="black" /><path d="M 376,705 L 376,708 L 375,709 L 375,711 L 373,713 L 367,713 L 366,712 L 366,714 L 367,713 L 368,714 L 373,714 L 374,713 L 376,713 L 375,712 L 375,710 L 376,709 L 377,710 L 377,711 L 377,705 Z" fill="black" /><path d="M 152,701 L 153,702 L 153,703 L 153,701 Z" fill="black" /><path d="M 647,699 L 647,701 L 647,700 L 648,699 L 655,699 L 657,701 L 657,699 Z" fill="black" /><path d="M 572,699 L 572,701 L 571,702 L 572,703 L 572,707 L 572,706 L 573,705 L 574,706 L 575,705 L 576,705 L 578,703 L 581,703 L 583,701 L 587,701 L 587,699 Z" fill="black" /><path d="M 538,699 L 539,700 L 538,701 L 537,701 L 538,702 L 538,703 L 537,704 L 537,712 L 538,713 L 538,714 L 543,714 L 544,713 L 551,713 L 552,714 L 552,699 L 544,699 L 544,700 L 543,701 L 540,701 L 539,700 L 540,699 Z" fill="black" /><path d="M 502,699 L 501,700 L 501,703 L 502,704 L 502,708 L 503,707 L 503,705 L 504,704 L 505,705 L 507,705 L 508,704 L 507,703 L 509,701 L 511,701 L 512,702 L 512,701 L 513,700 L 514,701 L 514,702 L 515,702 L 516,703 L 515,704 L 516,703 L 517,704 L 517,713 L 517,699 Z" fill="black" /><path d="M 467,699 L 467,700 L 466,701 L 466,703 L 467,704 L 467,711 L 468,712 L 467,713 L 468,714 L 480,714 L 480,713 L 479,712 L 480,711 L 481,711 L 482,712 L 482,713 L 482,699 Z" fill="black" /><path d="M 432,699 L 431,700 L 431,701 L 432,702 L 432,714 L 439,714 L 435,714 L 434,713 L 434,708 L 436,706 L 441,706 L 442,705 L 442,704 L 443,703 L 446,703 L 445,703 L 444,702 L 445,701 L 442,701 L 441,700 L 442,699 L 447,699 Z" fill="black" /><path d="M 397,699 L 396,700 L 396,701 L 397,702 L 397,703 L 396,704 L 396,706 L 397,707 L 397,713 L 398,714 L 398,713 L 399,712 L 400,713 L 406,713 L 407,712 L 408,712 L 410,710 L 411,711 L 411,712 L 410,713 L 410,714 L 411,713 L 412,713 L 411,712 L 412,711 L 412,699 Z" fill="black" /><path d="M 364,699 L 364,702 L 363,703 L 362,703 L 364,703 L 364,702 L 365,701 L 366,702 L 366,703 L 366,702 L 367,701 L 375,701 L 376,702 L 376,703 L 376,702 L 377,701 L 377,699 L 367,699 L 368,700 L 367,701 L 366,701 L 365,700 L 365,699 Z" fill="black" /><path d="M 362,699 L 362,700 L 361,701 L 362,701 Z" fill="black" /><path d="M 327,699 L 327,712 L 328,713 L 328,714 L 330,714 L 329,714 L 328,713 L 329,712 L 331,712 L 332,711 L 333,711 L 334,710 L 334,709 L 332,707 L 332,706 L 333,705 L 335,705 L 336,706 L 336,708 L 337,709 L 337,705 L 338,704 L 339,705 L 339,708 L 340,707 L 342,709 L 342,711 L 341,712 L 342,711 L 342,699 Z" fill="black" /><path d="M 293,699 L 292,700 L 292,702 L 293,703 L 292,704 L 292,709 L 292,704 L 293,703 L 294,704 L 296,702 L 297,703 L 300,703 L 301,704 L 301,705 L 302,706 L 302,707 L 303,708 L 303,709 L 304,710 L 304,704 L 305,703 L 306,704 L 306,709 L 307,709 L 307,699 Z" fill="black" /><path d="M 172,699 L 172,702 L 173,703 L 172,704 L 173,705 L 173,706 L 174,705 L 175,705 L 176,704 L 177,705 L 179,705 L 181,703 L 183,705 L 184,704 L 186,704 L 186,702 L 187,701 L 188,702 L 187,701 L 187,699 Z" fill="black" /><path d="M 241,698 L 241,700 L 240,701 L 241,702 L 241,711 L 242,712 L 242,706 L 243,705 L 244,706 L 244,705 L 245,704 L 245,702 L 246,701 L 247,702 L 247,704 L 247,703 L 248,702 L 251,702 L 250,702 L 249,701 L 250,700 L 251,700 L 252,699 L 255,699 L 256,700 L 255,699 L 243,699 L 242,698 Z" fill="black" /><path d="M 198,694 L 198,695 L 200,695 L 201,696 L 199,694 Z" fill="black" /><path d="M 743,691 L 742,692 L 742,693 L 743,693 Z" fill="black" /><path d="M 741,686 L 743,686 L 744,687 L 743,688 L 742,688 L 743,688 L 744,687 L 744,686 Z" fill="black" /><path d="M 659,682 L 659,683 L 660,683 L 661,684 L 661,685 L 659,687 L 660,688 L 659,689 L 659,690 L 660,690 L 661,691 L 661,693 L 659,695 L 660,695 L 661,696 L 661,697 L 661,688 L 660,687 L 661,686 L 662,686 L 663,687 L 663,696 L 666,696 L 667,695 L 669,695 L 670,696 L 671,696 L 672,697 L 671,696 L 671,692 L 672,691 L 673,692 L 673,695 L 674,695 L 675,696 L 675,682 L 672,682 L 673,682 L 674,683 L 673,684 L 664,684 L 663,683 L 663,682 L 663,684 L 664,685 L 663,686 L 662,686 L 661,685 L 661,682 Z" fill="black" /><path d="M 639,682 L 640,683 L 639,684 L 640,683 L 640,682 Z" fill="black" /><path d="M 589,682 L 589,696 L 590,696 L 591,697 L 600,697 L 600,696 L 602,694 L 603,695 L 603,696 L 602,697 L 603,696 L 603,693 L 604,692 L 604,690 L 605,689 L 605,688 L 604,687 L 605,686 L 605,682 Z" fill="black" /><path d="M 554,682 L 554,686 L 555,687 L 554,688 L 554,696 L 555,697 L 558,697 L 559,696 L 560,697 L 570,697 L 570,682 Z" fill="black" /><path d="M 449,682 L 449,695 L 450,696 L 450,697 L 451,696 L 453,696 L 454,697 L 455,696 L 461,696 L 462,697 L 463,697 L 465,695 L 465,685 L 464,684 L 465,683 L 465,682 Z" fill="black" /><path d="M 309,682 L 309,697 L 323,697 L 324,696 L 325,696 L 325,686 L 324,685 L 325,684 L 325,682 Z" fill="black" /><path d="M 248,682 L 252,682 L 253,683 L 252,684 L 255,684 L 255,682 Z" fill="black" /><path d="M 128,682 L 132,682 L 133,683 L 132,684 L 130,684 L 135,684 L 135,682 Z" fill="black" /><path d="M 521,681 L 520,682 L 519,682 L 519,697 L 521,697 L 522,696 L 528,696 L 531,693 L 532,694 L 532,695 L 531,696 L 532,695 L 534,695 L 534,689 L 535,688 L 535,682 L 528,682 L 527,681 Z" fill="black" /><path d="M 486,681 L 485,682 L 484,682 L 484,697 L 498,697 L 499,696 L 500,696 L 499,695 L 500,694 L 500,682 L 499,682 L 498,681 Z" fill="black" /><path d="M 415,681 L 414,682 L 414,697 L 425,697 L 426,696 L 427,697 L 428,696 L 429,696 L 430,697 L 430,682 L 429,682 L 428,681 L 425,681 L 424,682 L 423,681 Z" fill="black" /><path d="M 380,681 L 379,682 L 379,697 L 395,697 L 395,682 L 394,681 L 384,681 L 383,682 L 382,681 Z" fill="black" /><path d="M 275,681 L 275,696 L 276,697 L 277,696 L 278,696 L 279,695 L 280,696 L 287,696 L 288,697 L 290,697 L 290,682 L 289,681 L 279,681 L 278,682 L 277,681 L 276,682 Z" fill="black" /><path d="M 224,681 L 224,697 L 227,697 L 228,696 L 229,696 L 230,697 L 231,697 L 232,696 L 236,696 L 237,697 L 239,697 L 239,686 L 238,686 L 237,685 L 238,684 L 237,683 L 237,682 L 229,682 L 228,681 L 227,682 L 226,681 Z" fill="black" /><path d="M 200,681 L 199,682 L 190,682 L 190,696 L 194,696 L 194,693 L 195,692 L 196,692 L 197,691 L 199,691 L 201,689 L 202,690 L 203,690 L 204,691 L 204,692 L 205,693 L 205,694 L 204,695 L 205,695 L 205,682 L 204,682 L 203,681 L 202,682 L 201,682 Z" fill="black" /><path d="M 159,681 L 158,682 L 155,682 L 155,696 L 156,697 L 157,697 L 158,696 L 159,697 L 160,696 L 162,696 L 163,697 L 169,697 L 169,696 L 170,695 L 171,696 L 170,695 L 170,682 L 160,682 Z" fill="black" /><path d="M 751,677 L 751,679 L 750,680 L 751,679 Z" fill="black" /><path d="M 727,676 L 726,677 L 727,678 Z" fill="black" /><path d="M 864,666 L 865,667 L 865,666 Z" fill="black" /><path d="M 830,666 L 831,667 L 830,668 L 829,668 L 829,669 L 830,670 L 829,671 L 829,672 L 830,672 L 832,674 L 830,676 L 832,676 L 832,666 Z" fill="black" /><path d="M 81,666 L 82,667 L 82,666 Z" fill="black" /><path d="M 794,665 L 794,666 L 796,668 L 796,669 L 797,669 L 797,668 L 796,668 L 795,667 L 796,666 L 795,666 Z" fill="black" /><path d="M 786,665 L 785,666 L 783,666 L 782,667 L 783,668 L 783,670 L 784,670 L 785,671 L 786,671 L 788,669 L 790,669 L 789,669 L 788,668 L 784,668 L 783,667 L 784,666 L 790,666 L 790,665 Z" fill="black" /><path d="M 104,665 L 103,666 L 102,666 L 103,666 L 104,665 L 113,665 L 114,666 L 114,667 L 113,668 L 112,668 L 111,667 L 107,667 L 106,668 L 104,668 L 111,668 L 112,669 L 111,670 L 107,670 L 110,670 L 111,671 L 113,671 L 112,671 L 111,670 L 112,669 L 113,669 L 114,668 L 115,669 L 116,668 L 117,669 L 117,670 L 116,671 L 115,671 L 115,673 L 115,672 L 116,671 L 117,672 L 117,666 L 116,666 L 115,665 Z" fill="black" /><path d="M 749,664 L 749,667 L 750,667 L 751,666 L 756,666 L 757,667 L 756,668 L 753,668 L 758,668 L 760,670 L 759,671 L 755,671 L 756,671 L 757,672 L 757,679 L 759,679 L 759,673 L 760,672 L 759,671 L 760,670 L 762,670 L 761,670 L 759,668 L 759,667 L 760,666 L 761,667 L 762,667 L 762,666 L 751,666 Z" fill="black" /><path d="M 688,664 L 687,665 L 677,665 L 677,666 L 678,666 L 679,667 L 680,666 L 681,667 L 681,668 L 683,670 L 682,671 L 682,672 L 680,674 L 679,673 L 679,672 L 679,673 L 678,674 L 677,673 L 677,672 L 677,679 L 678,678 L 679,679 L 679,680 L 679,679 L 680,678 L 682,678 L 683,679 L 688,679 L 689,680 L 691,678 L 692,679 L 692,680 L 692,664 L 691,665 L 689,665 Z" fill="black" /><path d="M 642,664 L 642,680 L 643,679 L 644,679 L 645,680 L 646,680 L 647,679 L 655,679 L 656,680 L 657,679 L 657,665 L 656,665 L 655,664 L 654,665 L 651,665 L 650,664 L 648,664 L 647,665 L 646,665 L 645,664 L 644,665 L 643,665 Z" fill="black" /><path d="M 607,664 L 607,665 L 606,666 L 606,667 L 607,668 L 606,669 L 606,677 L 607,678 L 607,680 L 618,680 L 619,679 L 620,680 L 621,680 L 622,679 L 622,664 L 619,664 L 618,665 L 617,664 Z" fill="black" /><path d="M 207,664 L 207,680 L 218,680 L 219,679 L 220,680 L 221,680 L 222,679 L 222,664 Z" fill="black" /><path d="M 137,664 L 137,679 L 138,680 L 139,680 L 140,679 L 141,680 L 142,680 L 143,679 L 146,679 L 147,680 L 152,680 L 153,679 L 153,664 L 142,664 L 141,665 L 140,664 L 139,665 L 138,664 Z" fill="black" /><path d="M 844,661 L 844,662 L 845,662 L 845,661 Z" fill="black" /><path d="M 875,658 L 875,659 L 878,659 L 878,658 Z" fill="black" /><path d="M 918,648 L 918,649 L 919,649 L 919,648 Z" fill="black" /><path d="M 883,648 L 883,655 L 884,656 L 884,660 L 884,656 L 883,655 Z" fill="black" /><path d="M 870,648 L 869,649 L 869,650 L 870,650 Z" fill="black" /><path d="M 839,648 L 839,651 L 840,650 L 841,650 L 840,650 L 839,649 Z" fill="black" /><path d="M 834,648 L 835,649 L 836,648 Z" fill="black" /><path d="M 799,648 L 799,660 L 799,655 L 800,654 L 802,654 L 803,655 L 807,655 L 809,657 L 809,659 L 810,659 L 811,658 L 813,660 L 813,662 L 814,662 L 814,660 L 815,659 L 815,653 L 814,652 L 814,651 L 815,650 L 815,648 Z" fill="black" /><path d="M 65,648 L 64,649 L 64,651 L 65,651 Z" fill="black" /><path d="M 56,648 L 56,649 L 57,648 L 60,648 Z" fill="black" /><path d="M 848,647 L 847,648 L 844,648 L 844,649 L 847,649 L 848,650 L 848,651 L 847,652 L 846,652 L 843,655 L 840,655 L 841,655 L 842,656 L 843,656 L 844,655 L 845,655 L 846,656 L 846,657 L 845,658 L 842,658 L 844,658 L 845,659 L 847,659 L 848,660 L 848,657 L 849,656 L 848,655 L 848,649 L 849,648 Z" fill="black" /><path d="M 766,647 L 765,648 L 764,648 L 764,663 L 765,663 L 766,662 L 767,662 L 768,663 L 769,663 L 770,662 L 779,662 L 779,647 L 778,648 L 778,655 L 777,656 L 776,655 L 776,648 L 767,648 Z" fill="black" /><path d="M 730,647 L 729,648 L 729,663 L 730,663 L 730,662 L 731,661 L 732,662 L 732,663 L 732,662 L 733,661 L 734,662 L 743,662 L 744,663 L 743,662 L 743,661 L 744,660 L 744,659 L 744,660 L 743,661 L 740,661 L 739,660 L 740,659 L 741,659 L 742,658 L 741,658 L 740,657 L 741,656 L 744,656 L 744,653 L 745,652 L 745,648 L 744,647 Z" fill="black" /><path d="M 695,647 L 694,648 L 694,663 L 710,663 L 712,665 L 712,677 L 715,677 L 715,676 L 714,675 L 714,674 L 716,672 L 719,672 L 720,673 L 720,675 L 721,675 L 724,672 L 725,673 L 727,673 L 727,665 L 712,665 L 710,663 L 710,648 L 709,647 L 708,647 L 707,648 L 706,647 L 705,647 L 704,648 L 703,647 Z" fill="black" /><path d="M 660,647 L 659,648 L 659,663 L 660,663 L 661,662 L 662,662 L 663,663 L 664,662 L 673,662 L 674,661 L 675,662 L 675,663 L 675,648 L 674,647 Z" fill="black" /><path d="M 624,647 L 624,663 L 640,663 L 640,647 Z" fill="black" /><path d="M 589,647 L 589,663 L 605,663 L 605,648 L 604,647 Z" fill="black" /><path d="M 120,647 L 119,648 L 119,650 L 120,651 L 120,653 L 119,654 L 119,655 L 120,656 L 120,659 L 125,659 L 126,660 L 125,661 L 120,661 L 120,662 L 132,662 L 133,663 L 135,663 L 135,647 Z" fill="black" /><path d="M 85,647 L 85,663 L 86,663 L 86,659 L 87,658 L 88,659 L 95,659 L 96,658 L 97,659 L 97,660 L 95,662 L 93,662 L 92,661 L 88,661 L 88,662 L 95,662 L 96,661 L 97,662 L 97,659 L 98,658 L 99,659 L 99,661 L 100,662 L 100,648 L 99,647 L 98,647 L 97,648 L 87,648 L 86,647 Z" fill="black" /><path d="M 12,642 L 11,643 L 12,643 Z" fill="black" /><path d="M 935,638 L 933,640 L 932,640 L 933,641 L 935,641 L 936,640 L 935,639 Z" fill="black" /><path d="M 933,631 L 935,631 L 936,632 L 934,634 L 934,635 L 935,635 L 936,634 L 936,631 Z" fill="black" /><path d="M 924,631 L 924,632 L 925,631 Z" fill="black" /><path d="M 888,630 L 886,632 L 886,633 L 887,634 L 886,635 L 886,638 L 887,639 L 886,640 L 887,640 L 888,641 L 887,642 L 886,642 L 886,643 L 891,643 L 888,643 L 887,642 L 888,641 L 895,641 L 897,639 L 898,639 L 899,640 L 898,641 L 898,642 L 897,643 L 896,643 L 898,643 L 900,641 L 902,641 L 902,640 L 901,639 L 901,637 L 902,636 L 902,631 L 896,631 L 895,630 Z" fill="black" /><path d="M 853,630 L 852,631 L 851,631 L 851,645 L 852,645 L 853,646 L 854,646 L 855,645 L 856,646 L 860,646 L 861,645 L 863,645 L 864,646 L 865,645 L 867,645 L 867,630 L 866,631 L 865,630 Z" fill="black" /><path d="M 818,630 L 817,631 L 817,633 L 818,634 L 818,635 L 817,636 L 817,643 L 818,644 L 817,645 L 832,645 L 832,631 L 831,630 L 822,630 L 821,631 L 820,630 Z" fill="black" /><path d="M 781,630 L 781,639 L 782,640 L 781,641 L 782,642 L 781,643 L 782,644 L 782,646 L 792,646 L 793,645 L 797,645 L 797,630 Z" fill="black" /><path d="M 747,630 L 747,637 L 746,638 L 746,640 L 747,641 L 747,642 L 746,643 L 747,644 L 747,646 L 750,646 L 751,645 L 752,646 L 761,646 L 762,645 L 762,633 L 763,632 L 763,631 L 762,630 Z" fill="black" /><path d="M 712,630 L 711,631 L 712,632 L 711,633 L 711,635 L 712,636 L 712,643 L 711,644 L 711,645 L 712,646 L 727,646 L 728,645 L 727,644 L 728,643 L 728,642 L 727,641 L 728,640 L 727,639 L 728,638 L 728,637 L 727,636 L 727,635 L 728,634 L 728,633 L 727,632 L 728,631 L 727,630 Z" fill="black" /><path d="M 677,630 L 677,646 L 691,646 L 692,645 L 692,633 L 693,632 L 693,631 L 692,630 Z" fill="black" /><path d="M 102,630 L 102,646 L 116,646 L 118,644 L 118,643 L 117,642 L 118,641 L 118,630 Z" fill="black" /><path d="M 68,630 L 67,631 L 67,643 L 68,644 L 68,645 L 69,646 L 69,645 L 68,644 L 69,643 L 70,643 L 72,645 L 79,645 L 80,644 L 81,645 L 82,645 L 82,644 L 83,643 L 83,630 L 82,631 L 81,630 Z" fill="black" /><path d="M 32,630 L 32,639 L 32,637 L 33,636 L 33,635 L 34,634 L 35,635 L 35,637 L 36,636 L 36,634 L 37,633 L 39,635 L 39,637 L 40,638 L 40,639 L 41,639 L 42,640 L 42,641 L 43,641 L 43,640 L 42,640 L 39,637 L 39,635 L 40,634 L 41,634 L 42,633 L 43,633 L 46,636 L 46,637 L 45,638 L 45,639 L 46,640 L 46,641 L 47,641 L 47,631 L 40,631 L 39,630 L 37,630 L 36,631 L 33,631 Z" fill="black" /><path d="M 9,630 L 8,631 L 0,631 L 2,633 L 2,634 L 3,634 L 4,633 L 4,632 L 5,631 L 7,631 L 9,633 L 9,637 Z" fill="black" /><path d="M 1046,613 L 1046,614 L 1047,613 Z" fill="black" /><path d="M 974,613 L 975,614 L 974,615 L 973,615 L 974,616 L 974,627 L 975,626 L 979,626 L 978,626 L 977,625 L 978,624 L 984,624 L 984,615 L 985,614 L 986,615 L 986,623 L 987,624 L 987,616 L 988,615 L 989,616 L 989,624 L 989,614 L 988,613 Z" fill="black" /><path d="M 940,613 L 939,614 L 938,614 L 939,615 L 939,628 L 939,627 L 940,626 L 941,627 L 941,628 L 952,628 L 952,627 L 953,626 L 954,627 L 954,626 L 953,625 L 954,624 L 954,616 L 955,615 L 954,614 L 954,613 Z" fill="black" /><path d="M 904,613 L 903,614 L 904,615 L 904,626 L 903,627 L 904,628 L 919,628 L 919,613 Z" fill="black" /><path d="M 869,613 L 869,615 L 868,616 L 868,623 L 869,624 L 869,625 L 868,626 L 868,627 L 869,628 L 884,628 L 884,624 L 885,623 L 885,614 L 884,613 Z" fill="black" /><path d="M 834,613 L 834,628 L 838,628 L 839,629 L 840,628 L 849,628 L 849,622 L 850,621 L 850,620 L 849,619 L 849,616 L 850,615 L 849,614 L 849,613 Z" fill="black" /><path d="M 764,613 L 764,628 L 765,629 L 777,629 L 778,628 L 780,628 L 780,613 Z" fill="black" /><path d="M 49,613 L 49,628 L 65,628 L 65,613 Z" fill="black" /><path d="M 16,613 L 15,614 L 14,614 L 14,626 L 18,626 L 19,627 L 18,628 L 15,628 L 29,628 L 29,627 L 30,626 L 30,613 Z" fill="black" /><path d="M 1027,596 L 1026,597 L 1026,603 L 1028,605 L 1028,609 L 1027,610 L 1026,609 L 1026,608 L 1026,610 L 1027,611 L 1029,611 L 1028,610 L 1028,609 L 1030,607 L 1031,608 L 1031,609 L 1032,610 L 1031,611 L 1032,610 L 1041,610 L 1032,610 L 1031,609 L 1032,608 L 1039,608 L 1039,607 L 1040,606 L 1041,606 L 1041,600 L 1040,599 L 1041,598 L 1042,598 L 1042,597 L 1041,596 L 1032,596 L 1031,597 L 1029,597 L 1028,596 Z" fill="black" /><path d="M 991,596 L 991,606 L 992,607 L 991,608 L 991,611 L 997,611 L 998,610 L 1007,610 L 1007,596 Z" fill="black" /><path d="M 956,596 L 956,610 L 958,612 L 959,612 L 960,611 L 967,611 L 968,612 L 969,611 L 971,611 L 972,610 L 972,597 L 971,596 Z" fill="black" /><path d="M 921,596 L 921,610 L 922,611 L 922,612 L 923,611 L 924,611 L 925,612 L 926,612 L 927,611 L 936,611 L 937,610 L 937,596 Z" fill="black" /><path d="M 886,596 L 886,611 L 887,611 L 888,612 L 895,612 L 896,611 L 897,612 L 898,612 L 899,611 L 900,611 L 901,612 L 901,611 L 902,610 L 902,596 Z" fill="black" /><path d="M 0,596 L 0,612 L 2,612 L 3,611 L 12,611 L 13,610 L 13,596 Z" fill="black" /><path d="M 1116,591 L 1115,592 L 1116,592 Z" fill="black" /><path d="M 1120,580 L 1119,581 L 1119,582 L 1119,581 Z" fill="black" /><path d="M 1079,580 L 1079,581 L 1080,582 L 1087,582 L 1089,584 L 1089,590 L 1088,591 L 1089,591 L 1089,584 L 1088,583 L 1088,582 L 1080,582 L 1079,581 Z" fill="black" /><path d="M 1116,579 L 1116,580 L 1117,579 Z" fill="black" /><path d="M 1093,579 L 1092,580 L 1093,581 L 1093,582 L 1093,581 L 1094,580 Z" fill="black" /><path d="M 1089,579 L 1088,580 L 1090,580 Z" fill="black" /><path d="M 1044,579 L 1044,594 L 1045,593 L 1047,593 L 1048,594 L 1049,594 L 1050,593 L 1055,593 L 1049,593 L 1048,592 L 1049,591 L 1050,591 L 1051,590 L 1055,590 L 1056,589 L 1056,588 L 1057,587 L 1056,586 L 1056,584 L 1057,583 L 1058,583 L 1059,584 L 1059,591 L 1058,592 L 1059,591 L 1059,584 L 1058,583 L 1059,582 L 1059,579 L 1054,579 L 1053,580 L 1052,580 L 1051,579 Z" fill="black" /><path d="M 1008,579 L 1008,580 L 1009,581 L 1008,582 L 1008,583 L 1009,584 L 1009,592 L 1010,593 L 1010,594 L 1024,594 L 1024,579 Z" fill="black" /><path d="M 973,579 L 973,594 L 974,594 L 975,593 L 976,594 L 989,594 L 989,582 L 990,581 L 989,580 L 989,579 Z" fill="black" /><path d="M 938,579 L 938,588 L 939,589 L 938,590 L 938,593 L 940,595 L 941,594 L 954,594 L 955,593 L 955,580 L 954,579 Z" fill="black" /><path d="M 904,579 L 903,580 L 903,589 L 904,590 L 904,591 L 903,592 L 903,594 L 904,595 L 919,595 L 919,593 L 920,592 L 919,591 L 919,584 L 920,583 L 919,582 L 920,581 L 920,580 L 919,579 Z" fill="black" /><path d="M 1132,562 L 1132,567 L 1131,568 L 1131,570 L 1132,569 L 1133,570 L 1133,575 L 1133,568 L 1134,567 L 1135,568 L 1135,572 L 1135,568 L 1136,567 L 1144,567 L 1143,566 L 1139,566 L 1138,565 L 1139,564 L 1144,564 L 1146,562 L 1145,562 L 1145,563 L 1144,564 L 1143,563 L 1143,562 Z" fill="black" /><path d="M 1096,562 L 1096,577 L 1108,577 L 1110,575 L 1111,575 L 1112,576 L 1111,575 L 1111,574 L 1110,574 L 1109,573 L 1108,573 L 1106,571 L 1106,570 L 1108,568 L 1111,568 L 1112,567 L 1104,567 L 1103,566 L 1104,565 L 1111,565 L 1111,562 Z" fill="black" /><path d="M 1066,561 L 1065,562 L 1061,562 L 1061,577 L 1075,577 L 1076,576 L 1077,577 L 1077,562 L 1074,562 L 1073,561 L 1072,562 L 1070,562 L 1069,561 Z" fill="black" /><path d="M 1029,561 L 1028,562 L 1026,562 L 1026,577 L 1042,577 L 1042,562 L 1032,562 L 1031,561 L 1030,562 Z" fill="black" /><path d="M 1199,546 L 1198,547 L 1199,548 Z" fill="black" /><path d="M 1236,529 L 1236,530 L 1237,530 L 1237,529 Z" fill="black" /><path d="M 1236,527 L 1241,527 L 1242,528 L 1242,529 L 1244,529 L 1244,528 L 1245,527 L 1247,527 Z" fill="black" /><path d="M 1202,527 L 1201,528 L 1201,533 L 1202,534 L 1202,535 L 1201,536 L 1201,539 L 1201,536 L 1202,535 L 1202,531 L 1203,530 L 1204,531 L 1204,536 L 1205,535 L 1206,536 L 1206,542 L 1207,541 L 1209,541 L 1207,541 L 1206,540 L 1206,537 L 1207,536 L 1208,537 L 1208,538 L 1210,538 L 1209,537 L 1208,537 L 1207,536 L 1207,533 L 1207,534 L 1206,535 L 1205,534 L 1205,533 L 1204,532 L 1204,531 L 1205,530 L 1205,528 L 1206,527 L 1207,528 L 1207,530 L 1211,530 L 1212,531 L 1213,531 L 1214,532 L 1214,533 L 1213,534 L 1213,535 L 1212,536 L 1211,536 L 1215,536 L 1216,537 L 1216,540 L 1216,527 Z" fill="black" /><path d="M 1166,527 L 1166,543 L 1166,542 L 1167,541 L 1168,542 L 1177,542 L 1178,541 L 1179,542 L 1179,541 L 1180,540 L 1181,540 L 1181,531 L 1182,530 L 1182,528 L 1181,527 Z" fill="black" /><path d="M 11,523 L 10,524 L 9,524 L 10,524 Z" fill="black" /><path d="M 0,523 L 0,524 L 2,524 L 1,524 Z" fill="black" /><path d="M 1218,510 L 1218,524 L 1219,525 L 1221,525 L 1221,524 L 1222,523 L 1223,524 L 1223,525 L 1233,525 L 1233,524 L 1234,523 L 1233,522 L 1233,521 L 1234,520 L 1234,510 Z" fill="black" /><path d="M 1183,510 L 1183,525 L 1199,525 L 1199,510 Z" fill="black" /><path d="M 1150,509 L 1149,510 L 1148,510 L 1148,525 L 1164,525 L 1164,510 L 1160,510 L 1159,509 Z" fill="black" /><path d="M 1238,492 L 1237,493 L 1235,493 L 1235,507 L 1236,508 L 1247,508 L 1247,492 Z" fill="black" /><path d="M 1203,492 L 1202,493 L 1200,493 L 1200,497 L 1201,498 L 1201,508 L 1216,508 L 1216,502 L 1217,501 L 1216,500 L 1217,499 L 1217,493 L 1204,493 Z" fill="black" /><path d="M 2,344 L 2,345 L 4,345 L 4,344 Z" fill="black" /><path d="M 1243,297 L 1241,299 L 1241,300 L 1243,302 L 1244,302 L 1246,300 L 1246,299 L 1244,297 Z" fill="black" /><path d="M 0,254 L 0,270 L 12,270 L 13,269 L 13,254 Z" fill="black" /><path d="M 49,237 L 50,238 L 49,239 L 49,252 L 50,253 L 51,253 L 52,252 L 55,252 L 56,253 L 57,252 L 62,252 L 63,253 L 65,253 L 65,237 Z" fill="black" /><path d="M 16,237 L 15,238 L 14,238 L 14,250 L 15,251 L 15,253 L 16,252 L 24,252 L 25,253 L 26,253 L 27,252 L 30,252 L 30,237 L 29,238 L 28,237 Z" fill="black" /><path d="M 69,220 L 68,221 L 67,221 L 68,221 L 69,222 L 68,223 L 67,223 L 67,235 L 68,236 L 69,235 L 70,235 L 71,236 L 82,236 L 83,235 L 83,222 L 81,220 L 80,220 L 79,221 L 72,221 L 71,222 L 70,221 L 70,220 Z" fill="black" /><path d="M 40,220 L 40,221 L 39,222 L 38,222 L 37,223 L 32,223 L 32,236 L 47,236 L 48,235 L 47,234 L 47,233 L 48,232 L 47,231 L 47,220 L 46,221 L 45,221 L 44,222 L 42,222 L 41,221 L 42,220 Z" fill="black" /><path d="M 0,220 L 0,236 L 7,236 L 8,235 L 12,235 L 12,234 L 13,233 L 13,231 L 12,230 L 12,226 L 11,225 L 11,224 L 12,223 L 13,223 L 10,223 L 9,222 L 10,221 L 12,221 L 8,221 L 7,220 Z" fill="black" /><path d="M 52,216 L 51,217 L 49,217 L 52,217 L 54,219 L 54,217 L 53,218 L 52,217 Z" fill="black" /><path d="M 65,215 L 64,216 L 62,216 L 61,217 L 56,217 L 56,218 L 57,217 L 61,217 L 62,216 L 65,216 Z" fill="black" /><path d="M 24,215 L 25,216 L 25,217 L 25,215 Z" fill="black" /><path d="M 56,210 L 56,211 L 57,210 Z" fill="black" /><path d="M 16,209 L 16,210 L 15,211 L 15,215 L 14,216 L 15,217 L 15,218 L 18,218 L 19,217 L 22,217 L 23,218 L 23,217 L 21,217 L 20,216 L 21,215 L 22,215 L 22,213 L 21,213 L 21,215 L 20,216 L 19,216 L 18,215 L 18,212 L 17,212 L 16,211 Z" fill="black" /><path d="M 65,206 L 64,207 L 65,207 Z" fill="black" /><path d="M 1236,203 L 1235,204 L 1236,205 L 1235,206 L 1235,218 L 1236,219 L 1247,219 L 1247,203 Z" fill="black" /><path d="M 128,203 L 127,204 L 126,204 L 125,205 L 120,205 L 120,207 L 121,207 L 122,208 L 120,210 L 119,210 L 119,213 L 120,214 L 120,215 L 119,216 L 119,218 L 120,219 L 135,219 L 135,203 L 132,203 L 131,204 L 129,204 Z" fill="black" /><path d="M 85,203 L 85,204 L 86,205 L 86,206 L 85,207 L 85,215 L 84,216 L 84,217 L 86,219 L 95,219 L 96,218 L 100,218 L 98,218 L 97,217 L 98,216 L 100,216 L 100,206 L 99,205 L 99,204 L 98,204 L 99,205 L 99,207 L 100,208 L 99,209 L 99,210 L 98,211 L 97,210 L 97,206 L 96,206 L 95,207 L 92,207 L 95,207 L 96,206 L 97,207 L 97,208 L 96,209 L 88,209 L 87,210 L 85,208 L 87,206 L 87,205 L 86,205 L 85,204 L 86,203 Z" fill="black" /><path d="M 104,198 L 104,200 L 103,201 L 102,201 L 103,201 L 104,200 Z" fill="black" /><path d="M 1219,187 L 1219,189 L 1223,189 L 1224,190 L 1223,191 L 1219,191 L 1218,192 L 1218,201 L 1223,201 L 1224,202 L 1231,202 L 1232,201 L 1234,201 L 1234,193 L 1233,192 L 1234,191 L 1234,188 L 1233,187 Z" fill="black" /><path d="M 138,187 L 137,188 L 137,202 L 138,201 L 139,201 L 140,202 L 141,201 L 142,202 L 143,202 L 144,201 L 145,202 L 146,202 L 147,201 L 148,201 L 149,202 L 153,202 L 153,188 L 152,187 L 140,187 L 140,189 L 139,190 L 138,189 Z" fill="black" /><path d="M 117,187 L 117,198 L 116,199 L 117,200 L 116,201 L 113,201 L 112,200 L 113,199 L 114,199 L 112,199 L 111,200 L 109,198 L 108,199 L 109,200 L 111,200 L 112,201 L 117,201 Z" fill="black" /><path d="M 1237,181 L 1237,184 L 1238,183 L 1239,184 L 1247,184 L 1239,184 L 1238,183 L 1238,182 Z" fill="black" /><path d="M 1205,181 L 1205,183 L 1206,184 L 1207,184 L 1206,184 L 1205,183 Z" fill="black" /><path d="M 1202,181 L 1202,183 L 1203,184 L 1202,183 Z" fill="black" /><path d="M 135,174 L 134,175 L 134,181 L 132,183 L 130,183 L 129,184 L 123,184 L 135,184 Z" fill="black" /><path d="M 155,172 L 155,173 L 156,173 L 157,174 L 156,175 L 155,175 L 155,185 L 170,185 L 171,184 L 170,183 L 170,176 L 169,175 L 169,174 L 168,175 L 167,174 L 161,174 L 160,175 L 159,174 L 159,175 L 158,176 L 157,175 L 157,172 Z" fill="black" /><path d="M 1179,170 L 1177,172 L 1178,172 L 1178,171 L 1179,170 L 1180,170 L 1181,171 L 1181,173 L 1179,175 L 1178,175 L 1179,175 L 1180,174 L 1181,174 L 1181,170 Z" fill="black" /><path d="M 1166,170 L 1166,172 L 1167,173 L 1167,175 L 1166,176 L 1166,185 L 1167,184 L 1176,184 L 1177,183 L 1178,184 L 1178,185 L 1179,184 L 1181,184 L 1181,176 L 1181,177 L 1179,179 L 1178,178 L 1178,177 L 1176,177 L 1175,176 L 1176,175 L 1176,174 L 1176,175 L 1175,176 L 1175,177 L 1174,178 L 1173,178 L 1172,177 L 1172,176 L 1173,175 L 1173,174 L 1168,174 L 1167,173 L 1168,172 L 1173,172 L 1167,172 L 1166,171 L 1167,170 L 1173,170 Z" fill="black" /><path d="M 169,170 L 169,171 L 168,172 L 169,172 L 169,171 L 170,170 Z" fill="black" /><path d="M 1133,169 L 1132,170 L 1131,170 L 1131,184 L 1132,184 L 1133,185 L 1134,184 L 1135,185 L 1145,185 L 1146,184 L 1147,185 L 1147,173 L 1146,172 L 1146,171 L 1147,170 L 1145,170 L 1144,169 L 1143,170 L 1138,170 L 1137,169 L 1136,169 L 1135,170 L 1134,169 Z" fill="black" /><path d="M 1161,163 L 1161,165 L 1160,166 L 1150,166 L 1150,167 L 1161,167 Z" fill="black" /><path d="M 173,154 L 173,158 L 172,159 L 173,160 L 172,161 L 172,167 L 173,168 L 183,168 L 184,167 L 185,168 L 186,168 L 187,167 L 188,167 L 188,160 L 187,159 L 187,158 L 186,157 L 186,158 L 185,159 L 184,158 L 184,157 L 183,158 L 182,158 L 181,157 L 180,157 L 179,156 L 178,156 L 177,155 L 175,155 L 174,154 Z" fill="black" /><path d="M 1114,153 L 1114,167 L 1115,167 L 1116,168 L 1117,168 L 1118,167 L 1129,167 L 1129,160 L 1128,159 L 1128,154 L 1127,154 L 1126,155 L 1125,155 L 1126,155 L 1128,157 L 1127,158 L 1122,158 L 1121,157 L 1123,155 L 1122,154 L 1120,154 L 1119,153 L 1118,154 L 1117,153 L 1116,154 L 1116,157 L 1115,158 L 1114,157 Z" fill="black" /><path d="M 205,153 L 204,154 L 202,154 L 201,155 L 200,154 L 200,156 L 199,157 L 192,157 L 192,158 L 191,159 L 190,158 L 190,167 L 191,168 L 192,167 L 198,167 L 199,168 L 200,167 L 205,167 Z" fill="black" /><path d="M 1044,152 L 1044,155 L 1043,156 L 1044,157 L 1044,159 L 1043,160 L 1043,167 L 1044,168 L 1059,168 L 1060,167 L 1060,165 L 1059,164 L 1059,153 L 1058,152 L 1057,153 L 1056,152 L 1056,153 L 1055,154 L 1053,154 L 1052,153 L 1051,153 L 1050,152 L 1048,152 L 1047,153 L 1046,153 L 1045,152 Z" fill="black" /><path d="M 258,152 L 258,154 L 257,155 L 257,167 L 258,168 L 273,168 L 273,152 Z" fill="black" /><path d="M 186,152 L 186,155 L 187,154 L 187,153 Z" fill="black" /><path d="M 1075,138 L 1075,139 L 1074,140 L 1073,139 L 1073,140 L 1071,142 L 1070,142 L 1069,143 L 1070,144 L 1068,146 L 1063,146 L 1062,145 L 1062,144 L 1061,143 L 1061,141 L 1061,143 L 1062,144 L 1062,145 L 1061,146 L 1061,151 L 1062,151 L 1062,150 L 1063,149 L 1064,150 L 1073,150 L 1073,148 L 1074,147 L 1075,148 L 1075,149 L 1076,148 L 1077,148 L 1077,139 L 1076,139 Z" fill="black" /><path d="M 1030,138 L 1030,139 L 1029,140 L 1028,139 L 1028,141 L 1027,142 L 1026,141 L 1026,149 L 1027,149 L 1028,150 L 1039,150 L 1040,149 L 1041,150 L 1041,144 L 1040,143 L 1040,141 L 1038,141 L 1036,143 L 1035,143 L 1033,141 L 1033,139 L 1034,138 L 1032,138 L 1031,139 Z" fill="black" /><path d="M 219,138 L 219,145 L 218,146 L 217,145 L 217,139 L 217,141 L 216,142 L 216,144 L 217,145 L 216,146 L 213,146 L 212,147 L 211,147 L 212,148 L 211,149 L 208,149 L 207,148 L 207,144 L 207,148 L 208,149 L 210,149 L 211,150 L 217,150 L 217,148 L 218,147 L 219,148 L 219,149 L 219,148 L 220,147 L 222,147 L 222,138 L 221,139 L 220,139 Z" fill="black" /><path d="M 248,137 L 248,138 L 250,138 L 250,137 Z" fill="black" /><path d="M 1000,136 L 1000,137 L 1001,136 Z" fill="black" /><path d="M 991,136 L 991,138 L 992,139 L 992,140 L 991,141 L 991,142 L 992,143 L 991,144 L 991,149 L 992,150 L 991,151 L 1005,151 L 1006,150 L 1007,150 L 1007,139 L 1005,137 L 1005,136 L 1004,136 L 1004,137 L 1005,138 L 1005,139 L 1004,140 L 1004,142 L 1003,143 L 1002,143 L 1000,141 L 1000,140 L 1000,143 L 999,144 L 998,144 L 993,139 L 993,138 L 994,137 L 994,136 Z" fill="black" /><path d="M 677,135 L 677,145 L 676,146 L 676,149 L 677,150 L 677,151 L 690,151 L 691,150 L 692,151 L 692,144 L 691,144 L 690,143 L 691,142 L 692,142 L 691,142 L 690,141 L 689,142 L 687,140 L 687,138 L 688,137 L 692,137 L 692,136 L 691,135 L 690,135 L 689,136 L 688,135 L 680,135 L 679,136 L 678,135 Z" fill="black" /><path d="M 536,135 L 536,143 L 537,144 L 536,145 L 536,149 L 537,150 L 537,151 L 539,151 L 540,150 L 551,150 L 552,151 L 552,136 L 551,135 L 539,135 L 538,136 L 537,135 Z" fill="black" /><path d="M 432,135 L 432,143 L 431,144 L 431,146 L 432,147 L 431,148 L 431,151 L 430,152 L 414,152 L 414,168 L 429,168 L 430,167 L 430,152 L 431,151 L 447,151 L 447,136 L 446,135 Z" fill="black" /><path d="M 344,135 L 344,151 L 360,151 L 361,150 L 362,151 L 377,151 L 377,136 L 376,135 L 362,135 L 362,145 L 361,146 L 360,145 L 360,143 L 359,142 L 359,135 Z" fill="black" /><path d="M 276,135 L 275,136 L 275,151 L 290,151 L 290,144 L 291,143 L 290,142 L 290,135 Z" fill="black" /><path d="M 246,135 L 246,141 L 245,142 L 244,141 L 244,136 L 241,136 L 241,150 L 242,151 L 243,150 L 250,150 L 251,151 L 252,151 L 253,150 L 255,150 L 256,151 L 256,148 L 255,147 L 255,146 L 256,145 L 255,144 L 255,140 L 252,140 L 250,142 L 248,142 L 246,140 Z" fill="black" /><path d="M 173,133 L 174,134 L 174,133 Z" fill="black" /><path d="M 258,130 L 258,133 L 260,133 L 259,133 L 258,132 L 258,131 L 259,130 Z" fill="black" /><path d="M 272,129 L 271,130 L 271,131 L 269,133 L 266,133 L 264,131 L 264,130 L 263,130 L 262,131 L 261,131 L 262,131 L 263,130 L 264,131 L 264,132 L 263,133 L 262,133 L 273,133 L 272,132 Z" fill="black" /><path d="M 666,126 L 666,127 L 669,127 L 669,126 Z" fill="black" /><path d="M 174,126 L 173,127 L 174,127 L 175,128 L 174,129 L 173,129 L 173,130 L 174,131 L 175,131 L 174,131 L 173,130 L 175,128 L 174,127 Z" fill="black" /><path d="M 659,124 L 659,128 L 660,127 L 661,128 L 661,129 L 660,130 L 659,130 L 659,131 L 660,132 L 659,133 L 660,133 L 661,134 L 662,133 L 671,133 L 672,134 L 673,133 L 675,133 L 675,129 L 662,129 L 661,128 L 662,127 L 663,127 L 663,126 L 661,126 Z" fill="black" /><path d="M 1044,122 L 1044,133 L 1046,133 L 1045,133 L 1044,132 L 1044,130 L 1045,129 L 1046,129 L 1047,130 L 1046,131 L 1047,131 L 1047,130 L 1048,129 L 1049,129 L 1047,129 L 1046,128 L 1046,126 L 1046,127 L 1045,128 L 1044,127 Z" fill="black" /><path d="M 979,121 L 978,122 L 979,123 L 979,124 L 978,125 L 976,125 L 976,126 L 977,127 L 975,129 L 974,128 L 974,133 L 989,133 L 989,126 L 989,127 L 988,128 L 987,128 L 985,126 L 984,126 L 983,125 L 983,124 L 982,124 L 981,123 L 982,122 L 983,122 L 983,121 Z" fill="black" /><path d="M 590,120 L 589,121 L 589,133 L 590,133 L 591,134 L 592,133 L 604,133 L 604,130 L 603,130 L 602,129 L 603,128 L 604,128 L 603,127 L 603,122 L 603,124 L 602,125 L 601,124 L 601,123 L 601,125 L 600,126 L 600,128 L 599,129 L 595,129 L 594,128 L 595,127 L 598,127 L 597,126 L 597,125 L 596,125 L 595,124 L 594,124 L 593,125 L 591,125 L 590,124 Z" fill="black" /><path d="M 744,119 L 743,120 L 742,120 L 743,120 L 744,121 L 744,122 L 745,123 L 745,120 Z" fill="black" /><path d="M 731,119 L 730,120 L 730,124 L 729,125 L 729,132 L 730,133 L 730,134 L 731,134 L 732,133 L 734,133 L 735,134 L 736,133 L 745,133 L 745,130 L 744,130 L 741,127 L 743,125 L 743,124 L 740,124 L 739,123 L 739,122 L 738,121 L 737,121 L 736,120 L 737,119 L 734,119 L 735,119 L 736,120 L 736,123 L 735,124 L 734,123 L 734,124 L 733,125 L 732,124 L 732,119 Z" fill="black" /><path d="M 694,119 L 694,132 L 695,133 L 694,134 L 695,133 L 701,133 L 702,134 L 703,134 L 704,133 L 705,134 L 706,133 L 707,133 L 708,134 L 709,133 L 709,132 L 710,131 L 710,121 L 709,121 L 708,122 L 707,121 L 707,123 L 706,124 L 705,123 L 703,123 L 702,122 L 701,122 L 699,120 L 700,119 L 701,119 L 700,119 L 699,120 L 698,120 L 697,119 L 696,119 L 695,120 Z" fill="black" /><path d="M 660,119 L 659,120 L 659,121 L 659,120 Z" fill="black" /><path d="M 484,119 L 484,133 L 485,133 L 486,134 L 487,134 L 488,133 L 490,133 L 491,134 L 492,134 L 493,133 L 496,133 L 497,134 L 498,133 L 500,133 L 500,132 L 499,131 L 499,127 L 498,126 L 497,126 L 496,127 L 495,126 L 495,125 L 496,124 L 497,124 L 495,124 L 494,125 L 493,125 L 492,126 L 490,126 L 489,125 L 488,125 L 487,124 L 486,125 L 485,125 L 484,124 Z" fill="black" /><path d="M 415,119 L 414,120 L 414,133 L 417,133 L 418,134 L 421,134 L 422,133 L 424,133 L 425,134 L 426,133 L 427,134 L 428,134 L 429,133 L 429,132 L 430,131 L 429,130 L 430,129 L 429,128 L 429,119 L 429,128 L 428,129 L 427,128 L 427,121 L 427,128 L 426,129 L 425,128 L 425,122 L 424,122 L 423,121 L 416,121 L 416,122 L 423,122 L 425,124 L 425,125 L 424,126 L 423,125 L 418,125 L 417,124 L 415,124 L 414,123 L 414,120 Z" fill="black" /><path d="M 941,118 L 941,119 L 940,120 L 939,119 L 940,120 L 939,121 L 939,133 L 940,134 L 941,134 L 942,133 L 943,133 L 944,134 L 947,134 L 948,133 L 954,133 L 954,130 L 953,129 L 954,128 L 953,127 L 953,126 L 952,127 L 951,126 L 951,125 L 952,124 L 953,124 L 953,123 L 951,123 L 950,122 L 950,120 L 949,120 L 947,122 L 946,122 L 944,120 L 944,123 L 943,124 L 942,123 L 942,120 L 941,119 Z" fill="black" /><path d="M 904,118 L 904,128 L 903,129 L 903,130 L 904,131 L 903,132 L 903,133 L 904,134 L 913,134 L 914,133 L 919,133 L 919,119 L 918,119 L 917,118 L 916,118 L 915,119 L 912,119 L 911,118 L 910,118 L 912,120 L 911,121 L 908,121 L 907,120 L 908,119 L 907,119 L 906,118 Z" fill="black" /><path d="M 871,118 L 870,119 L 868,119 L 869,120 L 869,134 L 879,134 L 880,133 L 881,133 L 882,134 L 883,134 L 884,133 L 884,132 L 885,131 L 884,130 L 884,129 L 885,128 L 884,127 L 884,120 L 885,119 L 884,120 L 882,118 L 882,120 L 881,121 L 880,121 L 879,120 L 880,119 L 872,119 Z" fill="black" /><path d="M 799,118 L 799,133 L 800,134 L 815,134 L 816,135 L 816,151 L 815,152 L 799,152 L 799,167 L 797,169 L 782,169 L 780,167 L 780,152 L 781,151 L 797,151 L 798,150 L 797,149 L 798,148 L 798,146 L 797,145 L 797,135 L 782,135 L 782,144 L 781,145 L 781,151 L 780,152 L 764,152 L 763,151 L 763,142 L 762,141 L 762,135 L 761,135 L 760,136 L 759,135 L 747,135 L 747,141 L 746,142 L 746,148 L 747,149 L 747,150 L 745,152 L 729,152 L 728,151 L 728,145 L 727,144 L 727,135 L 712,135 L 712,150 L 710,152 L 694,152 L 694,167 L 692,169 L 676,169 L 675,168 L 675,152 L 659,152 L 659,167 L 660,168 L 675,168 L 676,169 L 676,185 L 675,186 L 661,186 L 660,185 L 659,185 L 658,184 L 658,169 L 642,169 L 640,167 L 640,152 L 641,151 L 650,151 L 651,150 L 655,150 L 656,151 L 657,151 L 657,136 L 656,135 L 648,135 L 647,136 L 646,135 L 642,135 L 642,146 L 641,147 L 642,148 L 642,149 L 641,150 L 641,151 L 640,152 L 624,152 L 624,168 L 623,169 L 606,169 L 605,168 L 605,152 L 606,151 L 622,151 L 622,136 L 621,135 L 619,135 L 618,136 L 617,135 L 607,135 L 607,140 L 606,141 L 606,143 L 607,144 L 606,145 L 607,146 L 606,147 L 606,149 L 607,150 L 605,152 L 589,152 L 589,168 L 605,168 L 606,169 L 606,184 L 604,186 L 589,186 L 588,185 L 588,170 L 587,169 L 571,169 L 570,168 L 570,152 L 571,151 L 587,151 L 587,136 L 586,135 L 585,136 L 584,135 L 577,135 L 576,136 L 575,135 L 573,135 L 572,136 L 572,144 L 571,145 L 571,151 L 570,152 L 554,152 L 554,168 L 570,168 L 571,169 L 571,185 L 570,186 L 555,186 L 553,184 L 553,175 L 552,174 L 553,173 L 553,172 L 552,171 L 553,170 L 552,169 L 536,169 L 535,168 L 535,152 L 519,152 L 519,168 L 535,168 L 536,169 L 536,185 L 535,186 L 519,186 L 518,185 L 518,184 L 517,183 L 517,169 L 501,169 L 501,184 L 499,186 L 484,186 L 483,185 L 483,184 L 482,183 L 482,169 L 483,168 L 499,168 L 500,167 L 500,152 L 501,151 L 503,151 L 504,150 L 505,151 L 507,151 L 508,150 L 509,150 L 510,151 L 511,151 L 512,150 L 515,150 L 516,151 L 517,150 L 517,136 L 516,135 L 515,136 L 514,136 L 513,135 L 512,136 L 511,135 L 504,135 L 503,136 L 502,135 L 501,136 L 501,151 L 500,152 L 484,152 L 484,160 L 483,161 L 483,168 L 482,169 L 466,169 L 466,185 L 465,186 L 449,186 L 448,185 L 448,180 L 447,179 L 447,169 L 448,168 L 464,168 L 465,167 L 465,152 L 466,151 L 477,151 L 478,150 L 480,150 L 481,151 L 482,151 L 482,136 L 481,135 L 471,135 L 470,136 L 470,139 L 469,140 L 468,139 L 468,136 L 467,135 L 467,143 L 466,144 L 466,149 L 467,150 L 465,152 L 449,152 L 449,158 L 448,159 L 449,160 L 449,162 L 448,163 L 449,164 L 449,167 L 447,169 L 431,169 L 431,185 L 430,186 L 414,186 L 413,185 L 413,170 L 412,169 L 397,169 L 395,167 L 395,152 L 396,151 L 412,151 L 412,136 L 411,135 L 397,135 L 397,136 L 396,137 L 396,151 L 395,152 L 379,152 L 379,159 L 378,160 L 378,166 L 379,167 L 378,168 L 379,168 L 380,169 L 381,168 L 395,168 L 396,169 L 396,184 L 395,185 L 394,185 L 393,184 L 392,185 L 379,185 L 378,184 L 378,171 L 378,179 L 376,181 L 376,183 L 377,184 L 377,185 L 376,186 L 364,186 L 363,185 L 362,186 L 360,184 L 361,183 L 360,182 L 360,162 L 360,168 L 359,169 L 344,169 L 343,168 L 343,153 L 342,152 L 326,152 L 325,151 L 325,136 L 324,135 L 323,135 L 322,136 L 321,135 L 312,135 L 311,136 L 310,135 L 309,136 L 309,151 L 308,152 L 292,152 L 292,168 L 291,169 L 275,169 L 274,170 L 275,171 L 274,172 L 274,173 L 275,174 L 274,175 L 274,185 L 273,186 L 257,186 L 256,185 L 256,170 L 255,169 L 240,169 L 239,168 L 239,152 L 235,152 L 234,153 L 232,153 L 231,152 L 230,152 L 230,153 L 229,154 L 228,154 L 227,153 L 227,152 L 225,152 L 225,153 L 226,154 L 226,155 L 225,156 L 224,156 L 224,167 L 230,167 L 231,168 L 232,167 L 236,167 L 237,168 L 239,168 L 240,169 L 240,185 L 239,186 L 224,186 L 223,185 L 223,184 L 222,183 L 222,169 L 219,169 L 218,170 L 217,169 L 216,170 L 215,169 L 208,169 L 207,170 L 207,185 L 223,185 L 224,186 L 224,187 L 223,188 L 223,190 L 224,191 L 223,192 L 223,201 L 224,202 L 223,203 L 207,203 L 206,202 L 206,191 L 205,190 L 206,189 L 206,188 L 205,187 L 205,186 L 189,186 L 189,187 L 190,188 L 190,197 L 189,198 L 188,197 L 188,195 L 187,194 L 187,187 L 186,186 L 175,186 L 174,187 L 173,186 L 172,187 L 172,203 L 171,204 L 170,203 L 158,203 L 157,204 L 156,203 L 154,205 L 155,206 L 154,207 L 154,219 L 153,220 L 137,220 L 137,234 L 136,235 L 137,236 L 136,237 L 119,237 L 118,236 L 118,229 L 117,228 L 117,224 L 118,223 L 118,222 L 117,221 L 117,220 L 103,220 L 102,221 L 102,236 L 118,236 L 119,237 L 119,252 L 117,254 L 116,253 L 115,253 L 114,254 L 101,254 L 100,253 L 100,252 L 101,251 L 100,250 L 100,237 L 85,237 L 84,238 L 84,253 L 83,254 L 67,254 L 67,270 L 66,271 L 49,271 L 48,270 L 48,255 L 47,254 L 32,254 L 31,255 L 32,256 L 31,257 L 31,258 L 32,259 L 32,260 L 31,261 L 31,262 L 32,263 L 31,264 L 31,269 L 32,270 L 31,271 L 14,271 L 14,287 L 13,288 L 0,288 L 0,304 L 12,304 L 14,306 L 14,319 L 13,320 L 13,321 L 12,322 L 0,322 L 0,339 L 12,339 L 14,341 L 13,342 L 12,342 L 13,342 L 14,343 L 13,344 L 13,351 L 14,352 L 14,354 L 12,356 L 10,356 L 9,355 L 8,355 L 7,354 L 7,353 L 9,351 L 10,351 L 10,350 L 9,351 L 8,350 L 8,351 L 6,353 L 5,353 L 4,352 L 5,351 L 5,350 L 4,349 L 2,349 L 1,348 L 1,347 L 0,347 L 0,349 L 1,350 L 1,352 L 0,353 L 0,354 L 1,354 L 2,355 L 1,356 L 0,356 L 0,373 L 11,373 L 12,374 L 11,375 L 0,375 L 0,509 L 7,509 L 8,510 L 7,511 L 0,511 L 0,521 L 9,521 L 9,520 L 10,519 L 10,513 L 11,512 L 12,513 L 12,517 L 12,515 L 13,514 L 14,515 L 14,519 L 13,520 L 13,523 L 14,524 L 12,526 L 0,526 L 0,543 L 13,543 L 14,544 L 14,559 L 12,561 L 0,561 L 0,577 L 12,577 L 14,579 L 14,594 L 15,595 L 25,595 L 26,594 L 27,594 L 28,595 L 30,595 L 30,580 L 31,579 L 30,579 L 29,578 L 28,579 L 27,579 L 26,578 L 25,579 L 24,579 L 23,578 L 21,578 L 20,579 L 16,579 L 15,578 L 14,579 L 13,578 L 13,561 L 14,560 L 31,560 L 32,561 L 31,562 L 31,576 L 32,577 L 47,577 L 49,579 L 49,595 L 48,596 L 32,596 L 31,597 L 32,598 L 32,612 L 35,612 L 36,611 L 37,612 L 47,612 L 48,611 L 48,596 L 49,595 L 66,595 L 67,596 L 67,611 L 68,612 L 83,612 L 84,613 L 84,628 L 85,629 L 99,629 L 100,628 L 100,613 L 84,613 L 83,612 L 83,596 L 84,595 L 100,595 L 102,597 L 102,611 L 103,612 L 118,612 L 119,613 L 119,628 L 120,629 L 135,629 L 136,628 L 136,614 L 135,613 L 136,612 L 153,612 L 154,613 L 154,629 L 153,630 L 137,630 L 137,646 L 153,646 L 153,630 L 154,629 L 171,629 L 172,630 L 172,646 L 188,646 L 189,647 L 189,653 L 190,654 L 190,661 L 189,662 L 189,663 L 188,664 L 172,664 L 171,663 L 171,648 L 170,647 L 155,647 L 155,648 L 154,649 L 154,654 L 155,655 L 154,656 L 154,658 L 155,659 L 155,663 L 171,663 L 172,664 L 172,679 L 173,680 L 188,680 L 188,664 L 189,663 L 205,663 L 205,660 L 206,659 L 206,658 L 205,657 L 205,655 L 206,654 L 206,647 L 207,646 L 225,646 L 226,647 L 225,648 L 224,648 L 224,662 L 225,661 L 230,661 L 231,662 L 231,661 L 232,660 L 233,661 L 234,661 L 235,660 L 237,662 L 237,663 L 237,662 L 238,661 L 238,656 L 239,655 L 240,656 L 240,663 L 256,663 L 257,664 L 257,673 L 258,674 L 257,675 L 257,679 L 258,680 L 257,681 L 257,694 L 258,695 L 258,696 L 259,695 L 260,696 L 261,696 L 261,694 L 262,693 L 264,695 L 263,696 L 267,696 L 268,695 L 270,695 L 271,696 L 272,695 L 272,682 L 273,681 L 259,681 L 258,680 L 259,679 L 273,679 L 273,664 L 274,663 L 290,663 L 290,658 L 291,657 L 291,647 L 292,646 L 307,646 L 309,648 L 309,663 L 308,664 L 292,664 L 292,680 L 304,680 L 305,679 L 306,680 L 307,680 L 308,679 L 308,677 L 307,676 L 307,675 L 308,674 L 308,671 L 307,670 L 307,669 L 308,668 L 308,664 L 309,663 L 325,663 L 326,664 L 326,673 L 327,674 L 327,678 L 326,679 L 327,680 L 343,680 L 344,681 L 344,697 L 347,697 L 348,696 L 355,696 L 356,695 L 359,695 L 360,696 L 359,695 L 359,686 L 360,685 L 360,682 L 359,681 L 344,681 L 342,679 L 342,678 L 343,677 L 343,676 L 342,675 L 342,674 L 343,673 L 343,664 L 344,663 L 360,663 L 361,664 L 361,679 L 362,680 L 377,680 L 377,664 L 378,663 L 395,663 L 396,664 L 396,680 L 412,680 L 412,664 L 396,664 L 395,663 L 395,648 L 397,646 L 412,646 L 414,648 L 414,663 L 430,663 L 431,664 L 431,679 L 432,680 L 447,680 L 447,664 L 431,664 L 430,663 L 430,648 L 432,646 L 447,646 L 448,647 L 448,661 L 449,662 L 449,663 L 465,663 L 466,664 L 466,679 L 467,680 L 482,680 L 482,664 L 483,663 L 500,663 L 501,664 L 501,679 L 502,680 L 516,680 L 517,679 L 517,664 L 501,664 L 500,663 L 500,647 L 501,646 L 517,646 L 517,645 L 518,644 L 518,643 L 517,642 L 518,641 L 518,630 L 519,629 L 535,629 L 536,630 L 536,646 L 535,647 L 519,647 L 518,648 L 518,656 L 519,657 L 519,663 L 535,663 L 536,664 L 536,680 L 552,680 L 552,664 L 536,664 L 535,663 L 535,647 L 536,646 L 552,646 L 553,645 L 552,644 L 552,636 L 553,635 L 553,630 L 554,629 L 570,629 L 571,630 L 571,646 L 570,647 L 554,647 L 554,663 L 570,663 L 571,664 L 571,667 L 572,668 L 572,680 L 587,680 L 587,664 L 571,664 L 570,663 L 570,647 L 571,646 L 587,646 L 587,643 L 588,642 L 587,641 L 587,636 L 588,635 L 588,630 L 589,629 L 605,629 L 606,630 L 606,646 L 622,646 L 622,644 L 623,643 L 623,641 L 622,640 L 622,635 L 623,634 L 623,630 L 624,629 L 640,629 L 640,613 L 641,612 L 658,612 L 659,613 L 659,629 L 658,630 L 642,630 L 641,631 L 642,632 L 641,633 L 641,634 L 642,635 L 642,640 L 641,641 L 642,642 L 642,643 L 641,644 L 642,645 L 642,646 L 658,646 L 658,630 L 659,629 L 675,629 L 675,613 L 676,612 L 692,612 L 693,611 L 693,596 L 694,595 L 710,595 L 711,596 L 711,611 L 712,612 L 711,613 L 694,613 L 694,629 L 710,629 L 710,614 L 712,612 L 727,612 L 729,614 L 729,628 L 730,629 L 744,629 L 745,628 L 745,613 L 729,613 L 728,612 L 728,596 L 729,595 L 745,595 L 746,596 L 746,610 L 747,611 L 747,612 L 762,612 L 763,611 L 763,596 L 764,595 L 780,595 L 781,596 L 781,611 L 782,612 L 797,612 L 797,610 L 798,609 L 797,608 L 798,607 L 798,596 L 799,595 L 815,595 L 816,596 L 816,612 L 815,613 L 799,613 L 799,628 L 815,628 L 815,613 L 816,612 L 820,612 L 821,611 L 822,611 L 823,612 L 831,612 L 832,611 L 832,596 L 816,596 L 815,595 L 815,579 L 816,578 L 820,578 L 821,577 L 822,577 L 823,578 L 832,578 L 833,579 L 833,592 L 834,593 L 834,595 L 850,595 L 851,596 L 851,611 L 852,612 L 866,612 L 867,611 L 867,596 L 851,596 L 850,595 L 850,579 L 851,578 L 854,578 L 855,577 L 856,578 L 865,578 L 866,577 L 868,579 L 868,594 L 869,595 L 884,595 L 885,594 L 885,579 L 886,578 L 887,578 L 888,577 L 896,577 L 897,578 L 898,577 L 902,577 L 902,562 L 904,560 L 919,560 L 921,562 L 921,563 L 920,564 L 921,565 L 921,577 L 937,577 L 937,561 L 938,560 L 954,560 L 956,562 L 956,577 L 972,577 L 972,561 L 973,560 L 989,560 L 990,559 L 990,544 L 991,543 L 1007,543 L 1008,544 L 1008,560 L 1007,561 L 991,561 L 991,577 L 1007,577 L 1007,561 L 1008,560 L 1024,560 L 1025,559 L 1025,544 L 1026,543 L 1042,543 L 1043,544 L 1043,560 L 1059,560 L 1060,559 L 1060,544 L 1061,543 L 1077,543 L 1078,544 L 1078,559 L 1079,560 L 1093,560 L 1094,559 L 1094,544 L 1078,544 L 1077,543 L 1077,527 L 1078,526 L 1095,526 L 1096,527 L 1096,543 L 1112,543 L 1113,544 L 1113,559 L 1114,560 L 1129,560 L 1129,552 L 1130,551 L 1130,547 L 1129,546 L 1129,545 L 1131,543 L 1143,543 L 1144,542 L 1146,542 L 1148,544 L 1148,547 L 1149,548 L 1149,550 L 1148,551 L 1149,552 L 1149,560 L 1150,559 L 1151,560 L 1154,557 L 1155,557 L 1156,558 L 1156,559 L 1158,559 L 1158,558 L 1160,556 L 1161,557 L 1161,552 L 1161,554 L 1160,555 L 1159,554 L 1159,552 L 1156,549 L 1157,548 L 1158,548 L 1159,549 L 1159,548 L 1160,547 L 1161,548 L 1161,549 L 1161,548 L 1162,547 L 1163,548 L 1163,552 L 1164,552 L 1164,544 L 1163,544 L 1162,545 L 1161,544 L 1160,545 L 1159,545 L 1158,544 L 1148,544 L 1147,543 L 1147,542 L 1146,541 L 1146,540 L 1147,539 L 1147,538 L 1146,537 L 1146,535 L 1147,534 L 1147,528 L 1146,527 L 1131,527 L 1131,543 L 1130,544 L 1113,544 L 1112,543 L 1112,527 L 1113,526 L 1129,526 L 1130,525 L 1130,509 L 1131,508 L 1132,509 L 1143,509 L 1144,508 L 1147,508 L 1147,493 L 1148,492 L 1159,492 L 1160,491 L 1161,491 L 1162,492 L 1164,492 L 1165,493 L 1165,504 L 1166,505 L 1165,506 L 1165,507 L 1166,508 L 1181,508 L 1182,507 L 1182,492 L 1183,491 L 1199,491 L 1199,475 L 1200,474 L 1217,474 L 1218,475 L 1218,491 L 1234,491 L 1234,475 L 1235,474 L 1247,474 L 1247,458 L 1235,458 L 1234,457 L 1234,442 L 1235,441 L 1237,441 L 1238,440 L 1247,440 L 1247,424 L 1236,424 L 1235,423 L 1235,408 L 1236,407 L 1247,407 L 1247,390 L 1239,390 L 1238,389 L 1237,390 L 1235,388 L 1235,380 L 1236,379 L 1238,381 L 1238,383 L 1237,384 L 1237,387 L 1239,387 L 1240,386 L 1247,386 L 1240,386 L 1239,385 L 1239,384 L 1240,383 L 1239,384 L 1238,383 L 1238,378 L 1239,377 L 1240,378 L 1240,380 L 1241,380 L 1241,379 L 1240,378 L 1240,377 L 1241,376 L 1243,376 L 1244,377 L 1244,378 L 1243,379 L 1243,380 L 1245,382 L 1243,384 L 1244,384 L 1245,383 L 1247,383 L 1246,383 L 1245,382 L 1247,380 L 1247,379 L 1246,378 L 1247,377 L 1247,376 L 1242,376 L 1241,375 L 1242,374 L 1247,374 L 1247,328 L 1240,328 L 1239,327 L 1240,326 L 1247,326 L 1240,326 L 1239,325 L 1240,324 L 1247,324 L 1237,324 L 1237,327 L 1238,328 L 1238,335 L 1237,336 L 1235,334 L 1235,323 L 1236,322 L 1247,322 L 1247,305 L 1245,305 L 1244,304 L 1239,304 L 1238,303 L 1238,300 L 1238,303 L 1237,304 L 1236,304 L 1235,303 L 1235,288 L 1236,287 L 1247,287 L 1247,270 L 1236,270 L 1234,268 L 1234,265 L 1235,264 L 1234,263 L 1234,254 L 1235,253 L 1247,253 L 1247,237 L 1235,237 L 1234,236 L 1234,220 L 1218,220 L 1218,236 L 1217,237 L 1200,237 L 1199,236 L 1199,220 L 1200,219 L 1216,219 L 1216,204 L 1215,203 L 1200,203 L 1199,202 L 1199,187 L 1192,187 L 1191,186 L 1184,186 L 1183,187 L 1183,201 L 1184,202 L 1196,202 L 1197,201 L 1198,202 L 1199,202 L 1201,204 L 1201,218 L 1199,220 L 1183,220 L 1183,235 L 1181,237 L 1177,237 L 1176,236 L 1175,237 L 1168,237 L 1167,236 L 1166,236 L 1165,235 L 1165,220 L 1166,219 L 1181,219 L 1182,218 L 1182,210 L 1181,209 L 1181,207 L 1182,206 L 1181,205 L 1181,203 L 1166,203 L 1166,214 L 1165,215 L 1165,219 L 1164,220 L 1148,220 L 1147,219 L 1147,203 L 1148,202 L 1164,202 L 1164,187 L 1163,186 L 1149,186 L 1148,187 L 1148,202 L 1147,203 L 1131,203 L 1130,202 L 1130,187 L 1129,186 L 1114,186 L 1113,187 L 1113,202 L 1112,203 L 1096,203 L 1095,202 L 1095,191 L 1094,190 L 1095,189 L 1094,188 L 1095,187 L 1095,186 L 1096,185 L 1111,185 L 1112,184 L 1112,170 L 1111,169 L 1096,169 L 1094,167 L 1094,153 L 1093,154 L 1091,154 L 1091,157 L 1090,158 L 1089,157 L 1089,153 L 1088,154 L 1087,154 L 1086,153 L 1083,153 L 1082,154 L 1080,154 L 1079,155 L 1079,163 L 1078,164 L 1078,167 L 1079,168 L 1087,168 L 1088,167 L 1089,167 L 1090,168 L 1091,167 L 1092,168 L 1093,168 L 1094,167 L 1096,169 L 1096,185 L 1095,186 L 1078,186 L 1077,185 L 1077,170 L 1076,170 L 1075,169 L 1061,169 L 1061,185 L 1060,186 L 1043,186 L 1042,185 L 1042,169 L 1026,169 L 1026,185 L 1025,186 L 1008,186 L 1007,185 L 1007,169 L 1008,168 L 1024,168 L 1025,167 L 1025,165 L 1024,164 L 1024,152 L 1009,152 L 1009,153 L 1008,154 L 1008,168 L 1007,169 L 991,169 L 990,168 L 990,153 L 989,152 L 987,152 L 986,153 L 985,152 L 973,152 L 972,151 L 972,136 L 971,135 L 970,136 L 969,136 L 968,135 L 957,135 L 956,136 L 956,151 L 955,152 L 938,152 L 937,151 L 937,136 L 936,135 L 922,135 L 921,136 L 921,151 L 920,152 L 903,152 L 902,151 L 902,135 L 887,135 L 886,136 L 886,151 L 885,152 L 868,152 L 867,151 L 867,136 L 866,135 L 852,135 L 851,136 L 851,151 L 850,152 L 834,152 L 833,153 L 833,168 L 832,169 L 816,169 L 815,168 L 815,152 L 816,151 L 832,151 L 832,135 L 816,135 L 815,134 L 815,128 L 814,127 L 814,118 L 813,118 L 812,119 L 811,118 L 810,118 L 809,119 L 808,118 L 807,119 L 806,118 L 804,118 L 803,119 L 802,119 L 801,118 Z" fill="black" /><path d="M 765,118 L 765,119 L 764,120 L 764,133 L 776,133 L 777,134 L 778,133 L 780,133 L 780,118 Z" fill="black" /><path d="M 624,118 L 624,133 L 631,133 L 632,134 L 633,134 L 634,133 L 640,133 L 640,129 L 639,128 L 640,127 L 640,119 L 632,119 L 631,118 Z" fill="black" /><path d="M 556,118 L 554,120 L 554,134 L 557,134 L 558,133 L 559,133 L 560,134 L 568,134 L 569,133 L 569,132 L 570,131 L 567,131 L 566,130 L 568,128 L 569,128 L 570,127 L 570,124 L 570,125 L 569,126 L 568,125 L 568,121 L 569,120 L 570,120 L 569,120 L 568,119 L 568,118 L 567,119 L 565,119 L 564,118 L 560,118 L 559,119 L 558,118 Z" fill="black" /><path d="M 528,118 L 527,119 L 519,119 L 519,133 L 535,133 L 534,133 L 533,132 L 534,131 L 535,131 L 535,122 L 533,120 L 533,118 L 532,119 L 529,119 Z" fill="black" /><path d="M 486,118 L 486,119 L 487,120 L 487,121 L 487,120 L 488,119 L 489,119 L 488,119 L 487,118 Z" fill="black" /><path d="M 453,118 L 451,120 L 450,119 L 449,119 L 449,131 L 450,132 L 450,133 L 454,133 L 455,134 L 456,133 L 464,133 L 464,119 L 462,119 L 463,119 L 464,120 L 464,123 L 463,124 L 461,124 L 458,121 L 457,121 L 456,120 L 456,119 L 456,121 L 455,122 L 454,121 L 454,120 L 453,119 Z" fill="black" /><path d="M 420,118 L 420,119 L 425,119 L 424,119 L 423,118 Z" fill="black" /><path d="M 381,118 L 380,119 L 379,119 L 379,133 L 380,133 L 381,134 L 382,134 L 383,133 L 384,134 L 391,134 L 392,133 L 395,133 L 395,119 L 394,118 L 392,118 L 391,119 L 384,119 L 383,118 Z" fill="black" /><path d="M 328,118 L 327,119 L 327,134 L 336,134 L 337,133 L 338,133 L 339,134 L 340,133 L 341,134 L 342,134 L 342,120 L 341,119 L 340,119 L 339,120 L 338,119 L 336,119 L 335,118 L 333,118 L 332,119 L 329,119 Z" fill="black" /><path d="M 306,118 L 306,119 L 304,121 L 304,122 L 303,123 L 300,123 L 298,121 L 297,121 L 296,122 L 297,122 L 298,123 L 296,125 L 294,123 L 294,122 L 294,124 L 293,125 L 292,124 L 292,120 L 293,119 L 292,120 L 292,133 L 293,133 L 294,134 L 296,134 L 297,133 L 308,133 L 308,130 L 307,129 L 307,119 Z" fill="black" /><path d="M 991,115 L 992,116 L 1002,116 L 992,116 Z" fill="black" /><path d="M 799,115 L 800,116 L 808,116 L 800,116 Z" fill="black" /><path d="M 688,114 L 689,115 L 688,116 L 689,116 L 689,114 Z" fill="black" /><path d="M 644,114 L 645,115 L 644,116 L 655,116 L 646,116 L 645,115 L 645,114 Z" fill="black" /><path d="M 618,114 L 618,115 L 617,116 L 616,116 L 618,116 L 618,115 L 619,114 Z" fill="black" /><path d="M 621,113 L 621,115 L 622,114 L 622,113 Z" fill="black" /><path d="M 749,111 L 749,112 L 750,113 L 749,114 L 748,114 L 747,113 L 747,112 L 747,115 L 748,116 L 761,116 L 762,115 L 762,111 L 762,113 L 761,114 L 759,114 L 758,113 L 758,112 L 757,112 L 757,113 L 756,114 L 755,114 L 754,113 L 754,112 L 753,112 L 753,113 L 752,114 L 751,114 L 750,113 L 751,112 L 750,112 Z" fill="black" /><path d="M 543,111 L 542,112 L 542,113 L 541,114 L 539,114 L 538,113 L 538,112 L 538,114 L 539,115 L 539,116 L 552,116 L 552,113 L 551,112 L 550,113 L 545,113 Z" fill="black" /><path d="M 475,111 L 474,112 L 472,112 L 472,113 L 471,114 L 469,114 L 469,116 L 469,115 L 470,114 L 471,114 L 472,115 L 471,116 L 481,116 L 480,116 L 479,115 L 480,114 L 482,114 L 480,114 L 479,113 L 479,112 L 477,112 L 476,111 Z" fill="black" /><path d="M 377,110 L 377,111 L 376,112 L 376,113 L 375,114 L 367,114 L 368,115 L 367,116 L 364,116 L 363,115 L 363,114 L 362,114 L 362,116 L 377,116 L 377,113 L 376,112 L 377,111 Z" fill="black" /><path d="M 889,109 L 887,111 L 887,112 L 887,111 L 888,110 L 890,112 L 890,113 L 889,114 L 887,114 L 888,114 L 889,115 L 888,116 L 887,116 L 899,116 L 897,116 L 896,115 L 896,113 L 895,112 L 893,112 L 892,111 L 892,109 Z" fill="black" /><path d="M 399,109 L 399,111 L 400,112 L 400,113 L 399,114 L 402,114 L 403,115 L 402,116 L 399,116 L 410,116 L 409,115 L 409,112 L 410,111 L 409,112 L 409,113 L 408,114 L 405,114 L 404,113 L 404,112 L 405,111 L 407,111 L 401,111 Z" fill="black" /><path d="M 322,108 L 322,110 L 320,112 L 323,112 L 324,113 L 323,114 L 317,114 L 323,114 L 324,115 L 324,116 L 324,110 L 324,111 L 323,112 L 322,111 Z" fill="black" /><path d="M 346,107 L 344,109 L 344,116 L 359,116 L 353,116 L 352,115 L 353,114 L 355,114 L 352,114 L 351,113 L 351,108 L 350,109 L 350,111 L 349,112 L 348,111 L 348,109 Z" fill="black" /><path d="M 922,106 L 922,113 L 921,114 L 921,115 L 922,116 L 935,116 L 936,115 L 937,115 L 937,112 L 936,111 L 936,108 L 935,107 L 935,106 L 935,107 L 936,108 L 936,111 L 935,112 L 934,111 L 934,110 L 933,110 L 931,112 L 930,112 L 928,110 L 928,108 L 929,107 L 928,107 L 927,106 L 926,107 L 926,110 L 925,111 L 924,110 L 924,106 L 924,109 L 923,110 L 922,109 Z" fill="black" /><path d="M 838,102 L 836,104 L 835,103 L 834,103 L 834,133 L 835,134 L 838,134 L 839,133 L 840,134 L 847,134 L 848,133 L 849,133 L 849,119 L 848,119 L 847,118 L 848,117 L 849,117 L 850,116 L 850,113 L 849,112 L 849,102 L 848,102 L 849,103 L 848,104 L 839,104 L 838,103 L 839,102 L 841,102 Z" fill="black" /><path d="M 572,102 L 572,116 L 573,116 L 572,115 L 572,111 L 573,110 L 574,111 L 574,112 L 574,109 L 576,107 L 577,108 L 578,108 L 578,107 L 577,106 L 576,106 L 576,107 L 575,108 L 574,107 L 574,102 L 574,103 L 573,104 L 572,103 Z" fill="black" /><path d="M 887,99 L 888,100 L 895,100 L 888,100 Z" fill="black" /><path d="M 796,99 L 796,100 L 797,99 Z" fill="black" /><path d="M 380,98 L 380,99 L 381,99 Z" fill="black" /><path d="M 822,97 L 821,98 L 823,98 Z" fill="black" /><path d="M 817,96 L 817,97 L 818,98 L 818,96 Z" fill="black" /><path d="M 854,93 L 854,95 L 853,96 L 853,97 L 852,98 L 852,100 L 853,99 L 852,98 L 853,97 L 855,97 L 854,97 L 853,96 L 854,95 Z" fill="black" /><path d="M 887,92 L 887,94 L 888,93 L 888,92 Z" fill="black" /><path d="M 854,86 L 854,87 L 855,87 Z" fill="black" /></svg>